<?xml version="1.0" encoding="utf-8"?>
<!-- Generator: Adobe Illustrator 22.1.0, SVG Export Plug-In . SVG Version: 6.00 Build 0)  -->
<svg version="1.1" id="katman_1" xmlns="http://www.w3.org/2000/svg" xmlns:xlink="http://www.w3.org/1999/xlink" x="0px" y="0px"
	 viewBox="0 0 199.9 196" style="enable-background:new 0 0 199.9 196;" xml:space="preserve">
<style type="text/css">
	.st0{fill:url(#SVGID_1_);}
	.st1{fill:url(#SVGID_2_);}
</style>
<g>
	<g>
		<g>
			<linearGradient id="SVGID_1_" gradientUnits="userSpaceOnUse" x1="-102.5504" y1="267.1335" x2="126.9902" y2="37.593">
				<stop  offset="0" style="stop-color:#000023"/>
				<stop  offset="1" style="stop-color:#005899"/>
			</linearGradient>
			<path class="st0" d="M90.9,16.7L81.6,1.9c-7.8,1.6-15.2,4-22.1,7.2l1.3,17.4c-3,1.7-5.9,3.6-8.7,5.7l-15.5-8.1
				c-5.8,5.1-11,11-15.5,17.3L31,55.9c-1.8,3-3.3,6-4.7,9.2L8.8,65.8c-2.5,7.3-4.1,14.9-4.7,22.8l15.7,7.6c0,2.5,0.1,5.1,0.3,7.7
				c0.1,0.9,0.2,1.8,0.3,2.6l-14.8,9.3c1.6,7.8,4,15.2,7.2,22.1l17.4-1.3c1.7,3,3.6,5.9,5.7,8.7l-8.1,15.4
				c5.1,5.9,11,11.1,17.3,15.5l14.5-9.8c3,1.8,6.1,3.3,9.2,4.7l0.7,17.4c2.7,0.9,5.4,1.7,8.1,2.4c1-2.8,2-5.8,3.1-8.8l22.9-75.7
				l-40.2,1.9"/>
			<linearGradient id="SVGID_2_" gradientUnits="userSpaceOnUse" x1="-59.236" y1="310.2833" x2="170.1583" y2="80.889">
				<stop  offset="0" style="stop-color:#000023"/>
				<stop  offset="1" style="stop-color:#005899"/>
			</linearGradient>
			<path class="st1" d="M192.4,127.9c2.5-7.3,4.1-14.9,4.7-22.8l-15.7-7.6c0-2.5-0.1-5.1-0.3-7.7c-0.1-0.9-0.2-1.8-0.3-2.7l14.8-9.3
				c-1.5-7.8-4-15.2-7.2-22.1l-17.4,1.3c-1.7-3-3.6-5.9-5.7-8.7l8.1-15.4c-5.1-5.8-14.8-13-21.2-17.5l-5.3,8.1L119.7,73l33.5,1.8
				c0,0-47.6,73.4-73,116.8c0.1,0,0.2,0.1,0.3,0.1c3.9,0.8,7.8,1.4,11.8,1.8l7.6-15.7c2.5,0,5.1-0.1,7.7-0.3
				c0.9-0.1,1.8-0.2,2.6-0.3l9.3,14.8c7.8-1.6,15.2-4,22.1-7.2l-1.3-17.5c3-1.7,5.9-3.6,8.7-5.7l15.4,8.1c5.8-5.1,11-11,15.5-17.3
				l-9.8-14.5c1.7-3,3.3-6.1,4.7-9.2L192.4,127.9z"/>
		</g>
	</g>
</g>
</svg>
