<?xml version="1.0" encoding="utf-8"?>
<!-- Generator: Adobe Illustrator 22.1.0, SVG Export Plug-In . SVG Version: 6.00 Build 0)  -->
<svg version="1.1" id="katman_1" xmlns="http://www.w3.org/2000/svg" xmlns:xlink="http://www.w3.org/1999/xlink" x="0px" y="0px"
	 viewBox="0 0 841.9 196" style="enable-background:new 0 0 841.9 196;" xml:space="preserve">
<style type="text/css">
	.st0{fill:url(#SVGID_1_);}
	.st1{fill:url(#SVGID_2_);}
	.st2{fill:#282C2E;}
</style>
<g>
	<g>
		<g>
			<linearGradient id="SVGID_1_" gradientUnits="userSpaceOnUse" x1="-102.5504" y1="267.1335" x2="126.9902" y2="37.593">
				<stop  offset="0" style="stop-color:#000023"/>
				<stop  offset="1" style="stop-color:#005899"/>
			</linearGradient>
			<path class="st0" d="M90.9,16.7L81.6,1.9c-7.8,1.6-15.2,4-22.1,7.2l1.3,17.4c-3,1.7-5.9,3.6-8.7,5.7l-15.5-8.1
				c-5.8,5.1-11,11-15.5,17.3L31,55.9c-1.8,3-3.3,6-4.7,9.2L8.8,65.8c-2.5,7.3-4.1,14.9-4.7,22.8l15.7,7.6c0,2.5,0.1,5.1,0.3,7.7
				c0.1,0.9,0.2,1.8,0.3,2.6l-14.8,9.3c1.6,7.8,4,15.2,7.2,22.1l17.4-1.3c1.7,3,3.6,5.9,5.7,8.7l-8.1,15.4
				c5.1,5.9,11,11.1,17.3,15.5l14.5-9.8c3,1.8,6.1,3.3,9.2,4.7l0.7,17.4c2.7,0.9,5.4,1.7,8.1,2.4c1-2.8,2-5.8,3.1-8.8l22.9-75.7
				l-40.2,1.9"/>
			<linearGradient id="SVGID_2_" gradientUnits="userSpaceOnUse" x1="-59.236" y1="310.2833" x2="170.1583" y2="80.889">
				<stop  offset="0" style="stop-color:#000023"/>
				<stop  offset="1" style="stop-color:#005899"/>
			</linearGradient>
			<path class="st1" d="M192.4,127.9c2.5-7.3,4.1-14.9,4.7-22.8l-15.7-7.6c0-2.5-0.1-5.1-0.3-7.7c-0.1-0.9-0.2-1.8-0.3-2.7l14.8-9.3
				c-1.5-7.8-4-15.2-7.2-22.1l-17.4,1.3c-1.7-3-3.6-5.9-5.7-8.7l8.1-15.4c-5.1-5.8-14.8-13-21.2-17.5l-5.3,8.1L119.7,73l33.5,1.8
				c0,0-47.6,73.4-73,116.8c0.1,0,0.2,0.1,0.3,0.1c3.9,0.8,7.8,1.4,11.8,1.8l7.6-15.7c2.5,0,5.1-0.1,7.7-0.3
				c0.9-0.1,1.8-0.2,2.6-0.3l9.3,14.8c7.8-1.6,15.2-4,22.1-7.2l-1.3-17.5c3-1.7,5.9-3.6,8.7-5.7l15.4,8.1c5.8-5.1,11-11,15.5-17.3
				l-9.8-14.5c1.7-3,3.3-6.1,4.7-9.2L192.4,127.9z"/>
		</g>
	</g>
	<g>
		<g>
			<path class="st2" d="M279.2,125.7V81.6l-16,32.1h-9.1l-16-32.1v44.1h-17V52h18.5l19.1,38.5L277.9,52h18.4v73.7H279.2z"/>
			<path class="st2" d="M324,126.7c-2.7,0-5.2-0.4-7.5-1.3c-2.3-0.9-4.3-2.1-6-3.6c-1.7-1.6-3-3.4-3.9-5.5c-1-2.1-1.5-4.4-1.5-6.9
				c0-2.7,0.6-5.2,1.7-7.4c1.1-2.2,2.8-4.1,4.8-5.7c2.1-1.6,4.5-2.8,7.4-3.7c2.8-0.9,6-1.3,9.4-1.3c2.3,0,4.5,0.2,6.6,0.6
				c2.1,0.4,4,1,5.6,1.7V91c0-6.3-3.6-9.4-10.9-9.4c-3,0-5.8,0.5-8.5,1.5c-2.7,1-5.5,2.5-8.5,4.5l-4.9-10.4
				c3.6-2.4,7.3-4.1,11.2-5.3c3.9-1.2,8-1.8,12.4-1.8c8.2,0,14.6,1.9,19.1,5.8c4.5,3.9,6.7,9.5,6.7,17v14c0,1.7,0.3,2.8,0.8,3.5
				c0.5,0.7,1.4,1.1,2.8,1.2v14c-1.5,0.3-2.8,0.6-3.9,0.7c-1.2,0.1-2.2,0.2-3.2,0.2c-3.1,0-5.5-0.6-7.1-1.8c-1.6-1.2-2.6-2.9-3-5.1
				l-0.3-2.5c-2.4,3.1-5.3,5.5-8.7,7.2C331.2,125.9,327.7,126.7,324,126.7z M328.8,114.8c1.8,0,3.5-0.3,5.2-0.9
				c1.7-0.6,3.1-1.5,4.2-2.5c1.6-1.2,2.4-2.6,2.4-3.9v-5.2c-1.5-0.6-3-1-4.7-1.3c-1.7-0.3-3.3-0.5-4.7-0.5c-3,0-5.6,0.7-7.5,2.1
				c-2,1.4-3,3.2-3,5.4c0,2,0.8,3.7,2.3,4.9C324.5,114.2,326.5,114.8,328.8,114.8z"/>
			<path class="st2" d="M405.9,125.7l-14.2-21.9l-5.8,6v15.9h-16.6V49.9h16.6v43.9l18.4-22.6h17.6l-19.6,23.5l21.3,31H405.9z"/>
			<path class="st2" d="M451.6,126.7c-4.6,0-8.7-0.7-12.3-2.2c-3.6-1.5-6.7-3.5-9.2-6.1c-2.5-2.6-4.4-5.5-5.8-8.9
				c-1.3-3.4-2-6.9-2-10.5c0-3.9,0.7-7.7,2-11.2c1.3-3.5,3.2-6.6,5.7-9.2c2.5-2.6,5.6-4.7,9.2-6.2c3.6-1.5,7.8-2.3,12.4-2.3
				c4.6,0,8.8,0.8,12.3,2.3c3.6,1.5,6.6,3.6,9.1,6.2c2.5,2.6,4.4,5.6,5.7,9c1.3,3.4,1.9,7,1.9,10.7c0,1,0,1.9-0.1,2.9
				c-0.1,0.9-0.2,1.7-0.3,2.4H440c0.3,3.7,1.6,6.5,4,8.4c2.4,1.9,5.1,2.9,8.1,2.9c2.4,0,4.8-0.6,7-1.8c2.2-1.2,3.8-2.8,4.5-4.8
				l14.1,3.9c-2.1,4.3-5.5,7.8-10,10.5C463.3,125.4,457.9,126.7,451.6,126.7z M463.1,93.3c-0.3-3.5-1.6-6.2-3.7-8.2
				c-2.1-2-4.8-3-8-3c-3.3,0-5.9,1-8,3.1c-2.1,2-3.3,4.8-3.7,8.1H463.1z"/>
			<path class="st2" d="M522.8,85.4c-4,0.1-7.6,0.7-10.9,2c-3.3,1.2-5.6,3.1-7.1,5.6v32.7h-16.6V71.2h15.3v11
				c1.9-3.7,4.3-6.5,7.2-8.6c2.9-2.1,6.1-3.1,9.4-3.2c0.8,0,1.3,0,1.7,0c0.3,0,0.7,0,1,0.1V85.4z"/>
			<path class="st2" d="M613.7,106.8c0,3.2-0.7,6-2,8.3c-1.3,2.4-3.1,4.3-5.4,5.9c-2.3,1.6-4.9,2.7-8,3.5c-3,0.8-6.3,1.2-9.7,1.2
				h-35.9V52h41c2.6,0,4.9,0.6,7,1.7c2.1,1.1,3.8,2.5,5.3,4.3c1.5,1.8,2.6,3.8,3.4,6c0.8,2.2,1.2,4.6,1.2,6.9c0,3.5-0.9,6.8-2.6,10
				c-1.8,3.1-4.4,5.5-7.9,7.1c4.2,1.2,7.6,3.5,10,6.6C612.5,97.8,613.7,101.8,613.7,106.8z M569.8,66.6v15.3h16.7
				c1.9,0,3.5-0.6,5-1.9c1.5-1.2,2.2-3.2,2.2-5.8c0-2.4-0.6-4.3-1.9-5.6c-1.3-1.3-2.8-2-4.6-2H569.8z M596.4,103.4
				c0-2.3-0.7-4.2-2-5.8c-1.3-1.6-3-2.4-5-2.4h-19.6v16.1h18.9c2.2,0,4-0.7,5.5-2.2C595.7,107.7,596.4,105.7,596.4,103.4z"/>
			<path class="st2" d="M622.4,65v-15H639v15H622.4z M622.4,125.7V71.2H639v54.5H622.4z"/>
			<path class="st2" d="M685,85.4c-4,0.1-7.6,0.7-10.9,2c-3.3,1.2-5.6,3.1-7.1,5.6v32.7h-16.6V71.2h15.3v11c1.9-3.7,4.3-6.5,7.2-8.6
				c2.9-2.1,6.1-3.1,9.4-3.2c0.8,0,1.3,0,1.7,0c0.3,0,0.7,0,1,0.1V85.4z"/>
			<path class="st2" d="M691.8,49.9h16.6v56.4c0,4.2,1.8,6.2,5.3,6.2c0.8,0,1.7-0.1,2.8-0.4c1-0.2,1.9-0.6,2.8-1.1l2.2,12.5
				c-2.1,1-4.5,1.7-7.2,2.3c-2.7,0.6-5.2,0.8-7.6,0.8c-4.8,0-8.4-1.2-11-3.7c-2.6-2.5-3.8-6.1-3.8-10.8V49.9z"/>
			<path class="st2" d="M726.7,65v-15h16.6v15H726.7z M726.7,125.7V71.2h16.6v54.5H726.7z"/>
			<path class="st2" d="M775.9,125.9c-3.6,0-6.9-0.7-9.9-2.2c-3-1.5-5.5-3.4-7.6-5.9c-2.1-2.5-3.8-5.4-4.9-8.7
				c-1.2-3.3-1.8-6.9-1.8-10.7c0-4,0.6-7.7,1.9-11.2s3-6.4,5.2-8.9c2.2-2.5,4.9-4.5,8-6c3.1-1.5,6.5-2.2,10.3-2.2
				c4.2,0,7.8,0.9,10.8,2.6c3.1,1.8,5.6,4.2,7.4,7.3v-8.9h14.4V122c0,4.2-0.8,7.9-2.3,11.2c-1.6,3.3-3.7,6.1-6.5,8.5
				c-2.8,2.3-6.1,4.1-10,5.3c-3.9,1.2-8.1,1.9-12.8,1.9c-5.9,0-10.9-0.9-15-2.8c-4.2-1.9-7.8-4.6-10.9-8.1l8.9-9
				c2,2.3,4.5,4.1,7.5,5.4c3,1.3,6.2,2,9.5,2c2,0,3.9-0.3,5.7-0.8c1.8-0.6,3.4-1.4,4.8-2.5c1.4-1.1,2.5-2.6,3.3-4.5
				c0.8-1.8,1.2-4,1.2-6.6v-5.3c-1.7,3-4,5.3-7.2,6.9C782.9,125.1,779.5,125.9,775.9,125.9z M781.6,112.7c2.6,0,4.8-0.7,6.8-2.1
				c2-1.4,3.6-3.2,4.7-5.4V93.7c-1.1-2.9-2.8-5.2-5.1-6.9c-2.3-1.7-4.7-2.5-7.3-2.5c-1.8,0-3.4,0.4-4.9,1.2
				c-1.5,0.8-2.8,1.9-3.8,3.2c-1.1,1.3-1.9,2.9-2.5,4.7c-0.6,1.8-0.9,3.6-0.9,5.4c0,2,0.3,3.9,1,5.6c0.7,1.7,1.6,3.2,2.8,4.4
				c1.2,1.2,2.5,2.2,4.1,2.9C778.1,112.4,779.8,112.7,781.6,112.7z"/>
			<path class="st2" d="M821.2,65v-15h16.6v15H821.2z M821.2,125.7V71.2h16.6v54.5H821.2z"/>
		</g>
		<rect x="770" y="49.9" class="st2" width="29.9" height="15.3"/>
	</g>
</g>
</svg>
